{
    "asset": {
        "version": "2.0",
        "generator": "Open Asset Import Library (assimp v5.2.cf7d3637)"
    },
    "extensionsUsed": [
        "KHR_materials_volume",
        "FB_ngon_encoding"
    ],
    "accessors": [
        {
            "bufferView": 0,
            "byteOffset": 0,
            "componentType": 5126,
            "count": 335058,
            "type": "VEC3",
            "max": [
                1254.0418701171876,
                1089.762451171875,
                1241.8211669921876
            ],
            "min": [
                -1254.0418701171876,
                7.9654541015625,
                -1241.8211669921876
            ]
        },
        {
            "bufferView": 1,
            "byteOffset": 0,
            "componentType": 5126,
            "count": 335058,
            "type": "VEC3",
            "max": [
                0.9910218715667725,
                0.9999996423721314,
                0.9540082216262817
            ],
            "min": [
                -0.9416369199752808,
                -0.5774170160293579,
                -0.999618649482727
            ]
        },
        {
            "bufferView": 2,
            "byteOffset": 0,
            "componentType": 5125,
            "count": 335058,
            "type": "SCALAR",
            "max": [
                335057
            ],
            "min": [
                0
            ]
        }
    ],
    "buffers": [
        {
            "byteLength": 9381624,
            "uri": "result.bin"
        }
    ],
    "bufferViews": [
        {
            "buffer": 0,
            "byteOffset": 0,
            "byteLength": 4020696,
            "target": 34962
        },
        {
            "buffer": 0,
            "byteOffset": 4020696,
            "byteLength": 4020696,
            "target": 34962
        },
        {
            "buffer": 0,
            "byteOffset": 8041392,
            "byteLength": 1340232,
            "target": 34963
        }
    ],
    "materials": [
        {
            "name": "material"
        }
    ],
    "meshes": [
        {
            "name": "Print3",
            "primitives": [
                {
                    "mode": 4,
                    "material": 0,
                    "indices": 2,
                    "attributes": {
                        "POSITION": 0,
                        "NORMAL": 1
                    }
                }
            ]
        }
    ],
    "nodes": [
        {
            "name": "Print3",
            "mesh": 0
        }
    ],
    "scenes": [
        {
            "nodes": [
                0
            ]
        }
    ],
    "scene": 0
}