{
    "asset": {
        "version": "2.0",
        "generator": "Open Asset Import Library (assimp v5.2.cf7d3637)"
    },
    "extensionsUsed": [
        "KHR_materials_transmission",
        "KHR_materials_volume",
        "KHR_materials_ior",
        "FB_ngon_encoding"
    ],
    "accessors": [
        {
            "bufferView": 0,
            "byteOffset": 0,
            "componentType": 5126,
            "count": 804630,
            "type": "VEC3",
            "max": [
                8.517182350158692,
                9.701568603515625,
                7.361194610595703
            ],
            "min": [
                -8.333209991455079,
                -9.232452392578125,
                -7.673894882202148
            ]
        },
        {
            "bufferView": 1,
            "byteOffset": 0,
            "componentType": 5126,
            "count": 804630,
            "type": "VEC3",
            "max": [
                0.9999106526374817,
                0.9999382495880127,
                0.9999986886978149
            ],
            "min": [
                -0.9999924898147583,
                -0.9999959468841553,
                -1.0
            ]
        },
        {
            "bufferView": 2,
            "byteOffset": 0,
            "componentType": 5126,
            "count": 804630,
            "type": "VEC2",
            "max": [
                0.9787780046463013,
                0.9803360104560852
            ],
            "min": [
                0.020653000101447107,
                0.017430007457733156
            ]
        },
        {
            "bufferView": 3,
            "byteOffset": 0,
            "componentType": 5125,
            "count": 804630,
            "type": "SCALAR",
            "max": [
                804629
            ],
            "min": [
                0
            ]
        }
    ],
    "buffers": [
        {
            "byteLength": 28966680,
            "uri": "result.bin"
        }
    ],
    "bufferViews": [
        {
            "buffer": 0,
            "byteOffset": 0,
            "byteLength": 9655560,
            "target": 34962
        },
        {
            "buffer": 0,
            "byteOffset": 9655560,
            "byteLength": 9655560,
            "target": 34962
        },
        {
            "buffer": 0,
            "byteOffset": 19311120,
            "byteLength": 6437040,
            "target": 34962
        },
        {
            "buffer": 0,
            "byteOffset": 25748160,
            "byteLength": 3218520,
            "target": 34963
        }
    ],
    "images": [
        {
            "name": "Scan",
            "uri": "data:image/jpeg;base64,"
        }
    ],
    "materials": [
        {
            "name": "_texture",
            "pbrMetallicRoughness": {
                "baseColorTexture": {
                    "index": 0
                },
                "metallicFactor": 0.0
            },
            "doubleSided": true,
            "extensions": {
                "KHR_materials_transmission": {
                    "transmissionFactor": 1.0
                },
                "KHR_materials_ior": {
                    "ior": 1.0
                }
            }
        },
        {
            "name": "material"
        }
    ],
    "meshes": [
        {
            "name": "Scan",
            "primitives": [
                {
                    "mode": 4,
                    "material": 0,
                    "indices": 3,
                    "attributes": {
                        "POSITION": 0,
                        "NORMAL": 1,
                        "TEXCOORD_0": 2
                    }
                }
            ]
        }
    ],
    "nodes": [
        {
            "name": "Scan",
            "matrix": [
                1.0,
                0.0,
                0.0,
                0.0,
                0.0,
                -1.1920928955078126e-7,
                1.0000001192092896,
                0.0,
                0.0,
                -1.0000001192092896,
                -1.1920928955078126e-7,
                0.0,
                0.0,
                0.0,
                0.0,
                1.0
            ],
            "mesh": 0
        }
    ],
    "samplers": [
        {
            "magFilter": 9729,
            "minFilter": 9987
        }
    ],
    "scenes": [
        {
            "nodes": [
                0
            ]
        }
    ],
    "textures": [
        {
            "source": 0,
            "sampler": 0
        }
    ],
    "scene": 0
}