{
    "asset": {
        "version": "2.0",
        "generator": "Open Asset Import Library (assimp v5.2.cf7d3637)"
    },
    "extensionsUsed": [
        "KHR_materials_transmission",
        "KHR_materials_volume",
        "KHR_materials_ior",
        "FB_ngon_encoding"
    ],
    "accessors": [
        {
            "bufferView": 0,
            "byteOffset": 0,
            "componentType": 5126,
            "count": 598680,
            "type": "VEC3",
            "max": [
                37.49867248535156,
                13.3057861328125,
                9.408195495605469
            ],
            "min": [
                -37.853416442871097,
                -12.665426254272461,
                -8.53989315032959
            ]
        },
        {
            "bufferView": 1,
            "byteOffset": 0,
            "componentType": 5126,
            "count": 598680,
            "type": "VEC3",
            "max": [
                0.9999853372573853,
                0.9999984502792358,
                0.9999985694885254
            ],
            "min": [
                -0.9999886751174927,
                -0.9999973773956299,
                -0.9999996423721314
            ]
        },
        {
            "bufferView": 2,
            "byteOffset": 0,
            "componentType": 5126,
            "count": 598680,
            "type": "VEC2",
            "max": [
                0.9902849793434143,
                0.9897559881210327
            ],
            "min": [
                0.010079000145196915,
                0.01003199815750122
            ]
        },
        {
            "bufferView": 3,
            "byteOffset": 0,
            "componentType": 5125,
            "count": 598680,
            "type": "SCALAR",
            "max": [
                598679
            ],
            "min": [
                0
            ]
        }
    ],
    "buffers": [
        {
            "byteLength": 21552480,
            "uri": "result.bin"
        }
    ],
    "bufferViews": [
        {
            "buffer": 0,
            "byteOffset": 0,
            "byteLength": 7184160,
            "target": 34962
        },
        {
            "buffer": 0,
            "byteOffset": 7184160,
            "byteLength": 7184160,
            "target": 34962
        },
        {
            "buffer": 0,
            "byteOffset": 14368320,
            "byteLength": 4789440,
            "target": 34962
        },
        {
            "buffer": 0,
            "byteOffset": 19157760,
            "byteLength": 2394720,
            "target": 34963
        }
    ],
    "images": [
        {
            "name": "Scan",
            "uri": "data:image/jpeg;base64,"
        }
    ],
    "materials": [
        {
            "name": "_texture",
            "pbrMetallicRoughness": {
                "baseColorTexture": {
                    "index": 0
                },
                "metallicFactor": 0.0
            },
            "doubleSided": true,
            "extensions": {
                "KHR_materials_transmission": {
                    "transmissionFactor": 1.0
                },
                "KHR_materials_ior": {
                    "ior": 1.0
                }
            }
        },
        {
            "name": "material"
        }
    ],
    "meshes": [
        {
            "name": "Scan",
            "primitives": [
                {
                    "mode": 4,
                    "material": 0,
                    "indices": 3,
                    "attributes": {
                        "POSITION": 0,
                        "NORMAL": 1,
                        "TEXCOORD_0": 2
                    }
                }
            ]
        }
    ],
    "nodes": [
        {
            "name": "Scan",
            "matrix": [
                1.0,
                0.0,
                0.0,
                0.0,
                0.0,
                -1.1920928955078126e-7,
                1.0000001192092896,
                0.0,
                0.0,
                -1.0000001192092896,
                -1.1920928955078126e-7,
                0.0,
                0.0,
                0.0,
                0.0,
                1.0
            ],
            "mesh": 0
        }
    ],
    "samplers": [
        {
            "magFilter": 9729,
            "minFilter": 9987
        }
    ],
    "scenes": [
        {
            "nodes": [
                0
            ]
        }
    ],
    "textures": [
        {
            "source": 0,
            "sampler": 0
        }
    ],
    "scene": 0
}